<?xml version="1.0" encoding="UTF-8" standalone="no"?>
<svg
   inkscape:export-ydpi="96"
   inkscape:export-xdpi="96"
   inkscape:export-filename="D:\GoogleDrive\RootCNC Website\MachineLogos\Root 4 AE.png"
   sodipodi:docname="Root 4-White.svg"
   inkscape:version="1.1.1 (3bf5ae0d25, 2021-09-20)"
   id="svg8"
   version="1.1"
   viewBox="0 0 285.74999 285.74999"
   height="1080"
   width="1080"
   xmlns:inkscape="http://www.inkscape.org/namespaces/inkscape"
   xmlns:sodipodi="http://sodipodi.sourceforge.net/DTD/sodipodi-0.dtd"
   xmlns="http://www.w3.org/2000/svg"
   xmlns:svg="http://www.w3.org/2000/svg"
   xmlns:rdf="http://www.w3.org/1999/02/22-rdf-syntax-ns#"
   xmlns:cc="http://creativecommons.org/ns#"
   xmlns:dc="http://purl.org/dc/elements/1.1/">
  <defs
     id="defs2" />
  <sodipodi:namedview
     units="px"
     inkscape:document-rotation="0"
     inkscape:window-maximized="1"
     inkscape:window-y="-8"
     inkscape:window-x="-8"
     inkscape:window-height="1009"
     inkscape:window-width="1920"
     showgrid="false"
     inkscape:current-layer="layer1"
     inkscape:document-units="px"
     inkscape:cy="532.35039"
     inkscape:cx="1092.985"
     inkscape:zoom="0.49497475"
     inkscape:pageshadow="2"
     inkscape:pageopacity="0.0"
     borderopacity="1.0"
     bordercolor="#666666"
     pagecolor="#ffffff"
     id="base"
     inkscape:pagecheckerboard="0" />
  <metadata
     id="metadata5">
    <rdf:RDF>
      <cc:Work
         rdf:about="">
        <dc:format>image/svg+xml</dc:format>
        <dc:type
           rdf:resource="http://purl.org/dc/dcmitype/StillImage" />
      </cc:Work>
    </rdf:RDF>
  </metadata>
  <g
     transform="translate(0,-217)"
     id="layer1"
     inkscape:groupmode="layer"
     inkscape:label="Layer 1">
    <g
       aria-label="R"
       id="text4526-1-5"
       style="font-style:normal;font-variant:normal;font-weight:normal;font-stretch:normal;font-size:172.037px;line-height:1.25;font-family:Arial;-inkscape-font-specification:Arial;letter-spacing:0px;word-spacing:0px;fill:#ffffff;fill-opacity:1;stroke:none;stroke-width:1.79207;stroke-opacity:1">
      <path
         d="m 169.07885,342.51885 17.72451,42.08522 q 3.4441,8.14824 8.98826,8.14824 l 3.3601,-0.084 h 35.11302 q 11.59234,0 11.59234,7.89623 0,5.79617 -4.03212,8.98826 -4.03212,3.19209 -11.50833,3.19209 H 191.5915 q -15.96046,0 -22.17664,-15.12044 l -24.27671,-58.4657 -11.25633,27.72081 q -8.06423,19.90858 -11.50833,26.88078 -3.3601,7.05621 -7.81223,13.02038 -16.044466,21.67263 -40.405174,21.67263 -17.724516,0 -28.728836,-11.08832 -11.00432,-11.08833 -11.00432,-29.06485 0,-23.43668 17.304504,-41.2452 9.324271,-9.49227 23.352679,-15.28844 14.028408,-5.88017 27.804807,-5.88017 6.55219,0 10.58431,3.02408 4.11612,2.94009 4.11612,7.72823 0,5.20815 -4.36813,8.31624 -2.52007,1.76405 -9.74428,2.52007 -16.80049,1.51205 -26.964786,7.64423 -8.568249,5.20815 -13.524393,13.44039 -4.956144,8.23224 -4.956144,17.2205 0,9.49227 4.788139,14.95243 4.872142,5.54416 13.188384,5.54416 10.248298,0 17.724515,-8.65225 7.560215,-8.65225 16.548485,-30.74489 l 29.06484,-71.65409 h -8.65225 q -11.59234,0 -11.59234,-7.98023 0,-5.79617 4.03212,-8.90426 4.03212,-3.19209 11.42433,-3.19209 h 27.88881 q 10.92032,0 15.96047,1.26004 5.12415,1.26003 9.82828,5.20815 9.74429,8.14824 9.74429,22.93267 0,13.44039 -7.98024,23.94069 -7.89623,10.41631 -20.9166,14.02841 z m -18.90055,-15.79246 2.43607,-0.168 q 9.57628,-0.58802 14.28041,-3.69611 9.07227,-5.96417 9.07227,-16.04447 0,-11.59234 -11.08833,-11.59234 h -1.84805 z"
         style="font-style:normal;font-variant:normal;font-weight:normal;font-stretch:normal;font-family:'Harlow Solid Italic';-inkscape-font-specification:'Harlow Solid Italic, ';stroke-width:1.79207;stroke:none;stroke-opacity:1;fill:#ffffff;fill-opacity:1"
         id="path834" />
    </g>
    <path
       id="path4564"
       style="opacity:1;fill:none;fill-opacity:1;stroke:#ffffff;stroke-width:15.2193;stroke-linecap:round;stroke-linejoin:miter;stroke-miterlimit:4;stroke-dasharray:none;stroke-opacity:1"
       d="M 275.76408,360.44571 A 133.16881,133.16881 0 0 1 142.59528,493.61452 133.16881,133.16881 0 0 1 9.4264679,360.44571 133.16881,133.16881 0 0 1 142.59528,227.2769 133.16881,133.16881 0 0 1 275.76408,360.44571 Z" />
  </g>
</svg>
